ffmpeg started on 2025-05-12 at 16:49:34
Report written to "D:\Convert\FFMetrics\reports\psnr_report-6.txt"
Log level: 32
Command line:
ffmpeg -hide_banner -nostdin -i "G:\\\xc0\xed\xe8\xec\xe5\\\xce\xed\xe3\xee\xe8\xed\xe3\xe8\\!_35_\xcb\xe5\xf2\xee_2024\\DreamCast\\\xcc\xee\xff \xef\xee\xe4\xf0\xf3\xe3\xe0-\xee\xeb\xe5\xed\xe8\xf5\xe0, \xcd\xee\xea\xee\xf2\xe0\xed\\[DC] Shikanoko Nokonoko Koshitantan - 11_Telegram_HEVC.mkv" -i "G:\\\xc0\xed\xe8\xec\xe5\\\xce\xed\xe3\xee\xe8\xed\xe3\xe8\\!_35_\xcb\xe5\xf2\xee_2024\\DreamCast\\\xcc\xee\xff \xef\xee\xe4\xf0\xf3\xe3\xe0-\xee\xeb\xe5\xed\xe8\xf5\xe0, \xcd\xee\xea\xee\xf2\xe0\xed\\[DC] Shikanoko Nokonoko Koshitantan - 11_Telegram.mp4" -lavfi "[0:v]settb=AVTB,setpts=PTS-STARTPTS,format=pix_fmts=yuv420p10,fps=24000/1001,scale=1920:1080:flags=bicubic[main];[1:v]settb=AVTB,setpts=PTS-STARTPTS,format=pix_fmts=yuv420p,fps=24000/1001,scale=1920:1080:flags=bicubic[ref];[main][ref]psnr=eof_action=endall:stats_file='D\\:/Convert/FFMetrics/logs/psnr_logfile-6.txt'" -f null -
Input #0, matroska,webm, from 'G:\Аниме\Онгоинги\!_35_Лето_2024\DreamCast\Моя подруга-олениха, Нокотан\[DC] Shikanoko Nokonoko Koshitantan - 11_Telegram_HEVC.mkv':
  Metadata:
    COMPATIBLE_BRANDS: isomiso2avc1mp41
    MAJOR_BRAND     : isom
    MINOR_VERSION   : 512
    ENCODER         : Lavf61.7.100
  Duration: 00:23:41.65, start: -0.021000, bitrate: 1452 kb/s
  Stream #0:0: Video: hevc (Main 10), yuv420p10le(tv, bt709, progressive), 1920x1080 [SAR 1:1 DAR 16:9], 23.98 fps, 23.98 tbr, 1k tbn (default)
      Metadata:
        HANDLER_NAME    : VideoHandler
        VENDOR_ID       : [0][0][0][0]
        ENCODER         : Lavc61.19.100 libx265
        BPS             : 1255268
        DURATION        : 00:23:41.544708333
        NUMBER_OF_FRAMES: 34083
        NUMBER_OF_BYTES : 223052411
        _STATISTICS_WRITING_APP: mkvpropedit v66.0.0 ('Josie') 64-bit
        _STATISTICS_WRITING_DATE_UTC: 2025-05-08 11:56:44
        _STATISTICS_TAGS: BPS DURATION NUMBER_OF_FRAMES NUMBER_OF_BYTES
  Stream #0:1: Audio: aac (LC), 48000 Hz, stereo, fltp (default)
      Metadata:
        HANDLER_NAME    : SoundHandler
        VENDOR_ID       : [0][0][0][0]
        ENCODER         : Lavc61.19.100 aac
        BPS             : 193559
        DURATION        : 00:23:41.653000000
        NUMBER_OF_FRAMES: 66641
        NUMBER_OF_BYTES : 34396893
        _STATISTICS_WRITING_APP: mkvpropedit v66.0.0 ('Josie') 64-bit
        _STATISTICS_WRITING_DATE_UTC: 2025-05-08 11:56:44
        _STATISTICS_TAGS: BPS DURATION NUMBER_OF_FRAMES NUMBER_OF_BYTES
Input #1, mov,mp4,m4a,3gp,3g2,mj2, from 'G:\Аниме\Онгоинги\!_35_Лето_2024\DreamCast\Моя подруга-олениха, Нокотан\[DC] Shikanoko Nokonoko Koshitantan - 11_Telegram.mp4':
  Metadata:
    major_brand     : isom
    minor_version   : 512
    compatible_brands: isomiso2avc1mp41
    encoder         : Lavf61.1.100
  Duration: 00:23:41.61, start: 0.000000, bitrate: 3510 kb/s
  Stream #1:0[0x1](und): Video: h264 (High) (avc1 / 0x31637661), yuv420p(tv, bt709, progressive), 1920x1080 [SAR 1:1 DAR 16:9], 3363 kb/s, 23.98 fps, 23.98 tbr, 24k tbn (default)
      Metadata:
        handler_name    : VideoHandler
        vendor_id       : [0][0][0][0]
        encoder         : Lavc61.3.100 h264_qsv
  Stream #1:1[0x2](und): Audio: aac (HE-AACv2) (mp4a / 0x6134706D), 48000 Hz, stereo, fltp, 144 kb/s (default)
      Metadata:
        handler_name    : SoundHandler
        vendor_id       : [0][0][0][0]
Stream mapping:
  Stream #0:0 (hevc) -> settb:default
  Stream #1:0 (h264) -> settb:default
  psnr:default -> Stream #0:0 (wrapped_avframe)
  Stream #0:1 -> #0:1 (aac (native) -> pcm_s16le (native))
Output #0, null, to 'pipe:':
  Metadata:
    COMPATIBLE_BRANDS: isomiso2avc1mp41
    MAJOR_BRAND     : isom
    MINOR_VERSION   : 512
    encoder         : Lavf61.7.100
  Stream #0:0: Video: wrapped_avframe, yuv420p10le(tv, bt709, progressive), 1920x1080 [SAR 1:1 DAR 16:9], q=2-31, 200 kb/s, 23.98 fps, 23.98 tbn
      Metadata:
        encoder         : Lavc61.19.100 wrapped_avframe
  Stream #0:1: Audio: pcm_s16le, 48000 Hz, stereo, s16, 1536 kb/s (default)
      Metadata:
        HANDLER_NAME    : SoundHandler
        VENDOR_ID       : [0][0][0][0]
        _STATISTICS_TAGS: BPS DURATION NUMBER_OF_FRAMES NUMBER_OF_BYTES
        BPS             : 193559
        DURATION        : 00:23:41.653000000
        NUMBER_OF_FRAMES: 66641
        NUMBER_OF_BYTES : 34396893
        _STATISTICS_WRITING_APP: mkvpropedit v66.0.0 ('Josie') 64-bit
        _STATISTICS_WRITING_DATE_UTC: 2025-05-08 11:56:44
        encoder         : Lavc61.19.100 pcm_s16le
frame=  155 fps=0.0 q=-0.0 size=N/A time=00:00:06.46 bitrate=N/A speed=12.8x    frame=  370 fps=359 q=-0.0 size=N/A time=00:00:15.43 bitrate=N/A speed=  15x    frame=  625 fps=407 q=-0.0 size=N/A time=00:00:26.06 bitrate=N/A speed=  17x    frame=  858 fps=416 q=-0.0 size=N/A time=00:00:35.78 bitrate=N/A speed=17.4x    frame= 1083 fps=420 q=-0.0 size=N/A time=00:00:45.17 bitrate=N/A speed=17.5x    frame= 1245 fps=404 q=-0.0 size=N/A time=00:00:51.92 bitrate=N/A speed=16.8x    frame= 1426 fps=395 q=-0.0 size=N/A time=00:00:59.47 bitrate=N/A speed=16.5x    frame= 1634 fps=397 q=-0.0 size=N/A time=00:01:08.15 bitrate=N/A speed=16.6x    frame= 1842 fps=398 q=-0.0 size=N/A time=00:01:16.82 bitrate=N/A speed=16.6x    frame= 2062 fps=400 q=-0.0 size=N/A time=00:01:26.00 bitrate=N/A speed=16.7x    frame= 2278 fps=402 q=-0.0 size=N/A time=00:01:35.01 bitrate=N/A speed=16.8x    frame= 2498 fps=404 q=-0.0 size=N/A time=00:01:44.18 bitrate=N/A speed=16.8x    frame= 2664 fps=397 q=-0.0 size=N/A time=00:01:51.11 bitrate=N/A speed=16.5x    frame= 2879 fps=398 q=-0.0 size=N/A time=00:02:00.07 bitrate=N/A speed=16.6x    frame= 3073 fps=397 q=-0.0 size=N/A time=00:02:08.16 bitrate=N/A speed=16.5x    frame= 3315 fps=401 q=-0.0 size=N/A time=00:02:18.26 bitrate=N/A speed=16.7x    frame= 3563 fps=406 q=-0.0 size=N/A time=00:02:28.60 bitrate=N/A speed=16.9x    frame= 3807 fps=410 q=-0.0 size=N/A time=00:02:38.78 bitrate=N/A speed=17.1x    frame= 4019 fps=410 q=-0.0 size=N/A time=00:02:47.62 bitrate=N/A speed=17.1x    frame= 4272 fps=414 q=-0.0 size=N/A time=00:02:58.17 bitrate=N/A speed=17.3x    frame= 4525 fps=417 q=-0.0 size=N/A time=00:03:08.73 bitrate=N/A speed=17.4x    frame= 4736 fps=417 q=-0.0 size=N/A time=00:03:17.53 bitrate=N/A speed=17.4x    frame= 4975 fps=419 q=-0.0 size=N/A time=00:03:27.49 bitrate=N/A speed=17.5x    frame= 5218 fps=421 q=-0.0 size=N/A time=00:03:37.63 bitrate=N/A speed=17.6x    frame= 5428 fps=421 q=-0.0 size=N/A time=00:03:46.39 bitrate=N/A speed=17.6x    frame= 5667 fps=422 q=-0.0 size=N/A time=00:03:56.36 bitrate=N/A speed=17.6x    frame= 5853 fps=420 q=-0.0 size=N/A time=00:04:04.11 bitrate=N/A speed=17.5x    frame= 6098 fps=422 q=-0.0 size=N/A time=00:04:14.33 bitrate=N/A speed=17.6x    frame= 6317 fps=422 q=-0.0 size=N/A time=00:04:23.47 bitrate=N/A speed=17.6x    frame= 6546 fps=423 q=-0.0 size=N/A time=00:04:33.02 bitrate=N/A speed=17.6x    frame= 6789 fps=425 q=-0.0 size=N/A time=00:04:43.15 bitrate=N/A speed=17.7x    frame= 7038 fps=426 q=-0.0 size=N/A time=00:04:53.54 bitrate=N/A speed=17.8x    frame= 7268 fps=427 q=-0.0 size=N/A time=00:05:03.13 bitrate=N/A speed=17.8x    frame= 7510 fps=428 q=-0.0 size=N/A time=00:05:13.22 bitrate=N/A speed=17.9x    frame= 7751 fps=429 q=-0.0 size=N/A time=00:05:23.28 bitrate=N/A speed=17.9x    frame= 8002 fps=431 q=-0.0 size=N/A time=00:05:33.75 bitrate=N/A speed=  18x    frame= 8239 fps=431 q=-0.0 size=N/A time=00:05:43.63 bitrate=N/A speed=  18x    frame= 8479 fps=433 q=-0.0 size=N/A time=00:05:53.64 bitrate=N/A speed=  18x    frame= 8732 fps=434 q=-0.0 size=N/A time=00:06:04.19 bitrate=N/A speed=18.1x    frame= 8971 fps=435 q=-0.0 size=N/A time=00:06:14.16 bitrate=N/A speed=18.1x    frame= 9244 fps=437 q=-0.0 size=N/A time=00:06:25.55 bitrate=N/A speed=18.2x    frame= 9487 fps=438 q=-0.0 size=N/A time=00:06:35.68 bitrate=N/A speed=18.3x    frame= 9718 fps=438 q=-0.0 size=N/A time=00:06:45.32 bitrate=N/A speed=18.3x    frame= 9976 fps=439 q=-0.0 size=N/A time=00:06:56.08 bitrate=N/A speed=18.3x    frame=10221 fps=440 q=-0.0 size=N/A time=00:07:06.30 bitrate=N/A speed=18.4x    frame=10482 fps=442 q=-0.0 size=N/A time=00:07:17.18 bitrate=N/A speed=18.4x    frame=10758 fps=444 q=-0.0 size=N/A time=00:07:28.69 bitrate=N/A speed=18.5x    frame=11028 fps=445 q=-0.0 size=N/A time=00:07:39.95 bitrate=N/A speed=18.6x    frame=11255 fps=445 q=-0.0 size=N/A time=00:07:49.42 bitrate=N/A speed=18.6x    frame=11461 fps=444 q=-0.0 size=N/A time=00:07:58.01 bitrate=N/A speed=18.5x    frame=11718 fps=446 q=-0.0 size=N/A time=00:08:08.73 bitrate=N/A speed=18.6x    frame=11927 fps=445 q=-0.0 size=N/A time=00:08:17.45 bitrate=N/A speed=18.5x    frame=12173 fps=445 q=-0.0 size=N/A time=00:08:27.71 bitrate=N/A speed=18.6x    frame=12402 fps=445 q=-0.0 size=N/A time=00:08:37.26 bitrate=N/A speed=18.6x    frame=12619 fps=445 q=-0.0 size=N/A time=00:08:46.31 bitrate=N/A speed=18.6x    frame=12864 fps=445 q=-0.0 size=N/A time=00:08:56.53 bitrate=N/A speed=18.6x    frame=13090 fps=445 q=-0.0 size=N/A time=00:09:05.96 bitrate=N/A speed=18.6x    frame=13331 fps=446 q=-0.0 size=N/A time=00:09:16.01 bitrate=N/A speed=18.6x    frame=13588 fps=446 q=-0.0 size=N/A time=00:09:26.73 bitrate=N/A speed=18.6x    frame=13815 fps=446 q=-0.0 size=N/A time=00:09:36.20 bitrate=N/A speed=18.6x    frame=14047 fps=446 q=-0.0 size=N/A time=00:09:45.87 bitrate=N/A speed=18.6x    frame=14297 fps=447 q=-0.0 size=N/A time=00:09:56.30 bitrate=N/A speed=18.6x    frame=14561 fps=448 q=-0.0 size=N/A time=00:10:07.31 bitrate=N/A speed=18.7x    frame=14815 fps=449 q=-0.0 size=N/A time=00:10:17.95 bitrate=N/A speed=18.7x    frame=15091 fps=450 q=-0.0 size=N/A time=00:10:29.42 bitrate=N/A speed=18.8x    frame=15333 fps=450 q=-0.0 size=N/A time=00:10:39.51 bitrate=N/A speed=18.8x    frame=15549 fps=450 q=-0.0 size=N/A time=00:10:48.52 bitrate=N/A speed=18.8x    frame=15752 fps=449 q=-0.0 size=N/A time=00:10:56.98 bitrate=N/A speed=18.7x    frame=15959 fps=448 q=-0.0 size=N/A time=00:11:05.62 bitrate=N/A speed=18.7x    frame=16222 fps=449 q=-0.0 size=N/A time=00:11:16.59 bitrate=N/A speed=18.7x    frame=16495 fps=450 q=-0.0 size=N/A time=00:11:27.97 bitrate=N/A speed=18.8x    frame=16744 fps=451 q=-0.0 size=N/A time=00:11:38.36 bitrate=N/A speed=18.8x    frame=17019 fps=452 q=-0.0 size=N/A time=00:11:49.83 bitrate=N/A speed=18.9x    frame=17259 fps=452 q=-0.0 size=N/A time=00:11:59.84 bitrate=N/A speed=18.9x    frame=17520 fps=453 q=-0.0 size=N/A time=00:12:10.73 bitrate=N/A speed=18.9x    frame=17786 fps=454 q=-0.0 size=N/A time=00:12:21.82 bitrate=N/A speed=18.9x    frame=18023 fps=454 q=-0.0 size=N/A time=00:12:31.70 bitrate=N/A speed=18.9x    frame=18246 fps=454 q=-0.0 size=N/A time=00:12:41.01 bitrate=N/A speed=18.9x    frame=18493 fps=454 q=-0.0 size=N/A time=00:12:51.31 bitrate=N/A speed=18.9x    frame=18744 fps=454 q=-0.0 size=N/A time=00:13:01.78 bitrate=N/A speed=  19x    frame=18987 fps=454 q=-0.0 size=N/A time=00:13:11.91 bitrate=N/A speed=  19x    frame=19253 fps=455 q=-0.0 size=N/A time=00:13:23.01 bitrate=N/A speed=  19x    frame=19513 fps=456 q=-0.0 size=N/A time=00:13:33.85 bitrate=N/A speed=  19x    frame=19752 fps=456 q=-0.0 size=N/A time=00:13:43.82 bitrate=N/A speed=  19x    frame=19961 fps=455 q=-0.0 size=N/A time=00:13:52.54 bitrate=N/A speed=  19x    frame=20170 fps=455 q=-0.0 size=N/A time=00:14:01.25 bitrate=N/A speed=  19x    frame=20412 fps=455 q=-0.0 size=N/A time=00:14:11.35 bitrate=N/A speed=  19x    frame=20645 fps=455 q=-0.0 size=N/A time=00:14:21.06 bitrate=N/A speed=  19x    frame=20891 fps=455 q=-0.0 size=N/A time=00:14:31.32 bitrate=N/A speed=  19x    frame=21142 fps=455 q=-0.0 size=N/A time=00:14:41.79 bitrate=N/A speed=  19x    frame=21412 fps=456 q=-0.0 size=N/A time=00:14:53.05 bitrate=N/A speed=  19x    frame=21627 fps=456 q=-0.0 size=N/A time=00:15:02.02 bitrate=N/A speed=  19x    frame=21837 fps=455 q=-0.0 size=N/A time=00:15:10.78 bitrate=N/A speed=  19x    frame=22082 fps=456 q=-0.0 size=N/A time=00:15:21.00 bitrate=N/A speed=  19x    frame=22340 fps=456 q=-0.0 size=N/A time=00:15:31.76 bitrate=N/A speed=  19x    frame=22602 fps=457 q=-0.0 size=N/A time=00:15:42.69 bitrate=N/A speed=  19x    frame=22850 fps=457 q=-0.0 size=N/A time=00:15:53.03 bitrate=N/A speed=  19x    frame=23053 fps=456 q=-0.0 size=N/A time=00:16:01.50 bitrate=N/A speed=  19x    frame=23303 fps=456 q=-0.0 size=N/A time=00:16:11.92 bitrate=N/A speed=  19x    frame=23562 fps=457 q=-0.0 size=N/A time=00:16:22.73 bitrate=N/A speed=19.1x    frame=23789 fps=457 q=-0.0 size=N/A time=00:16:32.19 bitrate=N/A speed=  19x    frame=24021 fps=457 q=-0.0 size=N/A time=00:16:41.87 bitrate=N/A speed=  19x    frame=24275 fps=457 q=-0.0 size=N/A time=00:16:52.46 bitrate=N/A speed=19.1x    frame=24542 fps=457 q=-0.0 size=N/A time=00:17:03.60 bitrate=N/A speed=19.1x    frame=24761 fps=457 q=-0.0 size=N/A time=00:17:12.74 bitrate=N/A speed=19.1x    frame=25013 fps=457 q=-0.0 size=N/A time=00:17:23.25 bitrate=N/A speed=19.1x    frame=25276 fps=458 q=-0.0 size=N/A time=00:17:34.21 bitrate=N/A speed=19.1x    frame=25530 fps=458 q=-0.0 size=N/A time=00:17:44.81 bitrate=N/A speed=19.1x    frame=25766 fps=458 q=-0.0 size=N/A time=00:17:54.65 bitrate=N/A speed=19.1x    frame=26029 fps=459 q=-0.0 size=N/A time=00:18:05.62 bitrate=N/A speed=19.1x    frame=26282 fps=459 q=-0.0 size=N/A time=00:18:16.17 bitrate=N/A speed=19.1x    frame=26557 fps=460 q=-0.0 size=N/A time=00:18:27.64 bitrate=N/A speed=19.2x    frame=26800 fps=460 q=-0.0 size=N/A time=00:18:37.78 bitrate=N/A speed=19.2x    frame=27076 fps=460 q=-0.0 size=N/A time=00:18:49.29 bitrate=N/A speed=19.2x    frame=27318 fps=461 q=-0.0 size=N/A time=00:18:59.38 bitrate=N/A speed=19.2x    frame=27484 fps=459 q=-0.0 size=N/A time=00:19:06.31 bitrate=N/A speed=19.2x    frame=27733 fps=460 q=-0.0 size=N/A time=00:19:16.69 bitrate=N/A speed=19.2x    frame=27972 fps=460 q=-0.0 size=N/A time=00:19:26.66 bitrate=N/A speed=19.2x    frame=28227 fps=460 q=-0.0 size=N/A time=00:19:37.30 bitrate=N/A speed=19.2x    frame=28476 fps=460 q=-0.0 size=N/A time=00:19:47.68 bitrate=N/A speed=19.2x    frame=28686 fps=460 q=-0.0 size=N/A time=00:19:56.44 bitrate=N/A speed=19.2x    frame=28890 fps=459 q=-0.0 size=N/A time=00:20:04.95 bitrate=N/A speed=19.1x    frame=29162 fps=460 q=-0.0 size=N/A time=00:20:16.29 bitrate=N/A speed=19.2x    frame=29347 fps=459 q=-0.0 size=N/A time=00:20:24.01 bitrate=N/A speed=19.1x    frame=29612 fps=459 q=-0.0 size=N/A time=00:20:35.06 bitrate=N/A speed=19.2x    frame=29859 fps=459 q=-0.0 size=N/A time=00:20:45.36 bitrate=N/A speed=19.2x    frame=30128 fps=460 q=-0.0 size=N/A time=00:20:56.58 bitrate=N/A speed=19.2x    frame=30404 fps=460 q=-0.0 size=N/A time=00:21:08.10 bitrate=N/A speed=19.2x    frame=30641 fps=460 q=-0.0 size=N/A time=00:21:17.98 bitrate=N/A speed=19.2x    frame=30837 fps=460 q=-0.0 size=N/A time=00:21:26.15 bitrate=N/A speed=19.2x    frame=30988 fps=458 q=-0.0 size=N/A time=00:21:32.45 bitrate=N/A speed=19.1x    frame=31179 fps=458 q=-0.0 size=N/A time=00:21:40.42 bitrate=N/A speed=19.1x    frame=31343 fps=457 q=-0.0 size=N/A time=00:21:47.26 bitrate=N/A speed=  19x    frame=31504 fps=456 q=-0.0 size=N/A time=00:21:53.97 bitrate=N/A speed=  19x    frame=31675 fps=455 q=-0.0 size=N/A time=00:22:01.11 bitrate=N/A speed=  19x    frame=31832 fps=454 q=-0.0 size=N/A time=00:22:07.65 bitrate=N/A speed=18.9x    frame=32004 fps=453 q=-0.0 size=N/A time=00:22:14.83 bitrate=N/A speed=18.9x    frame=32153 fps=452 q=-0.0 size=N/A time=00:22:21.04 bitrate=N/A speed=18.8x    frame=32310 fps=450 q=-0.0 size=N/A time=00:22:27.59 bitrate=N/A speed=18.8x    frame=32459 fps=449 q=-0.0 size=N/A time=00:22:33.81 bitrate=N/A speed=18.7x    frame=32610 fps=448 q=-0.0 size=N/A time=00:22:40.10 bitrate=N/A speed=18.7x    frame=32763 fps=447 q=-0.0 size=N/A time=00:22:46.49 bitrate=N/A speed=18.6x    frame=32958 fps=447 q=-0.0 size=N/A time=00:22:54.62 bitrate=N/A speed=18.6x    frame=33136 fps=446 q=-0.0 size=N/A time=00:23:02.04 bitrate=N/A speed=18.6x    frame=33382 fps=446 q=-0.0 size=N/A time=00:23:12.30 bitrate=N/A speed=18.6x    frame=33636 fps=447 q=-0.0 size=N/A time=00:23:22.90 bitrate=N/A speed=18.6x    frame=33904 fps=447 q=-0.0 size=N/A time=00:23:34.07 bitrate=N/A speed=18.6x    [Parsed_psnr_10 @ 0000016111d752c0] PSNR y:47.824547 u:50.211059 v:49.800721 average:48.436300 min:39.789440 max:inf
[out#0/null @ 00000161050c67c0] video:14645KiB audio:266564KiB subtitle:0KiB other streams:0KiB global headers:0KiB muxing overhead: unknown
frame=34083 fps=447 q=-0.0 Lsize=N/A time=00:23:41.54 bitrate=N/A speed=18.7x    
